<?xml version="1.0" encoding="UTF-8" standalone="no"?>
<!-- Generator: Adobe Illustrator 14.0.0, SVG Export Plug-In . SVG Version: 6.00 Build 43363)  -->

<svg
   xmlns:dc="http://purl.org/dc/elements/1.1/"
   xmlns:cc="http://creativecommons.org/ns#"
   xmlns:rdf="http://www.w3.org/1999/02/22-rdf-syntax-ns#"
   xmlns:svg="http://www.w3.org/2000/svg"
   xmlns="http://www.w3.org/2000/svg"
   xmlns:xlink="http://www.w3.org/1999/xlink"
   xmlns:sodipodi="http://sodipodi.sourceforge.net/DTD/sodipodi-0.dtd"
   xmlns:inkscape="http://www.inkscape.org/namespaces/inkscape"
   version="1.1"
   id="svg2"
   sodipodi:docname="icon.svg"
   inkscape:version="0.48.5 r10040"
   x="0px"
   y="0px"
   width="128.00682"
   height="121.61084"
   viewBox="0 0 128.00682 121.61084"
   enable-background="new 0 0 2800 2800"
   xml:space="preserve"><metadata
   id="metadata101"><rdf:RDF><cc:Work
       rdf:about=""><dc:format>image/svg+xml</dc:format><dc:type
         rdf:resource="http://purl.org/dc/dcmitype/StillImage" /><dc:title></dc:title></cc:Work></rdf:RDF></metadata>
<defs
   id="defs3"><radialGradient
     inkscape:collect="always"
     xlink:href="#path5080_1_"
     id="radialGradient3167"
     gradientUnits="userSpaceOnUse"
     gradientTransform="matrix(0.05131528,0,0,-0.01960244,-21.167414,111.04589)"
     cx="1547.6113"
     cy="3819.2227"
     r="529.3316" /><radialGradient
     inkscape:collect="always"
     xlink:href="#rect3925_1_"
     id="radialGradient3170"
     gradientUnits="userSpaceOnUse"
     gradientTransform="matrix(0.06413769,-0.00101348,-0.00177038,-0.11200201,85.910813,180.44499)"
     cx="-495.93259"
     cy="950.4292"
     r="101.7735" /><radialGradient
     inkscape:collect="always"
     xlink:href="#rect3973_1_"
     id="radialGradient3174"
     gradientUnits="userSpaceOnUse"
     gradientTransform="matrix(0.07087923,-0.02102644,-0.03667118,-0.12429202,81.47004,191.50099)"
     cx="-81.287102"
     cy="996.18951"
     r="101.7743" /><radialGradient
     inkscape:collect="always"
     xlink:href="#path5039_1_"
     id="radialGradient3178"
     gradientUnits="userSpaceOnUse"
     gradientTransform="matrix(0.0641441,0,0,0.0641441,-32.175921,-48.03891)"
     cx="934.01459"
     cy="2082.3652"
     r="31.3613" /><radialGradient
     inkscape:collect="always"
     xlink:href="#rect4023_1_"
     id="radialGradient3182"
     gradientUnits="userSpaceOnUse"
     gradientTransform="matrix(0.0641441,0,0,0.0641441,-32.175921,-48.03891)"
     cx="1017.292"
     cy="2068.9492"
     r="19.771799" /><radialGradient
     inkscape:collect="always"
     xlink:href="#rect4013_1_"
     id="radialGradient3185"
     gradientUnits="userSpaceOnUse"
     gradientTransform="matrix(0.0641441,0,0,0.0641441,-32.175921,-48.03891)"
     cx="1000.5684"
     cy="2030.3379"
     r="19.771799" /><radialGradient
     inkscape:collect="always"
     xlink:href="#rect3985_1_"
     id="radialGradient3188"
     gradientUnits="userSpaceOnUse"
     gradientTransform="matrix(0.08363749,-0.03784502,-0.06095614,-0.13470902,69.330865,203.59479)"
     cx="175.0244"
     cy="958.19379"
     r="101.7735" /><radialGradient
     inkscape:collect="always"
     xlink:href="#path3911_1_"
     id="radialGradient3192"
     gradientUnits="userSpaceOnUse"
     gradientTransform="matrix(0.0641441,0,0,-0.04535629,77.98994,140.08679)"
     cx="193.2197"
     cy="2548.6738"
     r="329.1214" /><radialGradient
     inkscape:collect="always"
     xlink:href="#path2831_1_"
     id="radialGradient3199"
     gradientUnits="userSpaceOnUse"
     gradientTransform="matrix(0.16971887,0,0,-0.06671628,-236.4435,167.64909)"
     cx="1770.2422"
     cy="1604.252"
     r="691.3548" /><radialGradient
     inkscape:collect="always"
     xlink:href="#path2831_1_"
     id="radialGradient3236"
     gradientUnits="userSpaceOnUse"
     gradientTransform="matrix(0.16971887,0,0,-0.06671628,-236.4435,167.64909)"
     cx="1770.2422"
     cy="1604.252"
     r="691.3548" /><radialGradient
     inkscape:collect="always"
     xlink:href="#path3911_1_"
     id="radialGradient3238"
     gradientUnits="userSpaceOnUse"
     gradientTransform="matrix(0.0641441,0,0,-0.04535629,77.98994,140.08679)"
     cx="193.2197"
     cy="2548.6738"
     r="329.1214" /><radialGradient
     inkscape:collect="always"
     xlink:href="#rect3985_1_"
     id="radialGradient3240"
     gradientUnits="userSpaceOnUse"
     gradientTransform="matrix(0.08363749,-0.03784502,-0.06095614,-0.13470902,69.330865,203.59479)"
     cx="175.0244"
     cy="958.19379"
     r="101.7735" /><radialGradient
     inkscape:collect="always"
     xlink:href="#rect4013_1_"
     id="radialGradient3242"
     gradientUnits="userSpaceOnUse"
     gradientTransform="matrix(0.0641441,0,0,0.0641441,-32.175921,-48.03891)"
     cx="1000.5684"
     cy="2030.3379"
     r="19.771799" /><radialGradient
     inkscape:collect="always"
     xlink:href="#rect4023_1_"
     id="radialGradient3244"
     gradientUnits="userSpaceOnUse"
     gradientTransform="matrix(0.0641441,0,0,0.0641441,-32.175921,-48.03891)"
     cx="1017.292"
     cy="2068.9492"
     r="19.771799" /><radialGradient
     inkscape:collect="always"
     xlink:href="#path5039_1_"
     id="radialGradient3246"
     gradientUnits="userSpaceOnUse"
     gradientTransform="matrix(0.0641441,0,0,0.0641441,-32.175921,-48.03891)"
     cx="934.01459"
     cy="2082.3652"
     r="31.3613" /><radialGradient
     inkscape:collect="always"
     xlink:href="#rect3973_1_"
     id="radialGradient3248"
     gradientUnits="userSpaceOnUse"
     gradientTransform="matrix(0.07087923,-0.02102644,-0.03667118,-0.12429202,81.47004,191.50099)"
     cx="-81.287102"
     cy="996.18951"
     r="101.7743" /><radialGradient
     inkscape:collect="always"
     xlink:href="#rect3925_1_"
     id="radialGradient3250"
     gradientUnits="userSpaceOnUse"
     gradientTransform="matrix(0.06413769,-0.00101348,-0.00177038,-0.11200201,85.910813,180.44499)"
     cx="-495.93259"
     cy="950.4292"
     r="101.7735" /><radialGradient
     inkscape:collect="always"
     xlink:href="#path5080_1_"
     id="radialGradient3252"
     gradientUnits="userSpaceOnUse"
     gradientTransform="matrix(0.05131528,0,0,-0.01960244,-21.167414,111.04589)"
     cx="1547.6113"
     cy="3819.2227"
     r="529.3316" /></defs>
<sodipodi:namedview
   id="namedview52"
   pagecolor="#ffffff"
   bordercolor="#666666"
   borderopacity="1"
   objecttolerance="10"
   gridtolerance="10"
   guidetolerance="10"
   showgrid="false"
   inkscape:zoom="2.2622754"
   inkscape:cx="105.19358"
   inkscape:cy="70.44313"
   inkscape:pageopacity="0"
   inkscape:pageshadow="2"
   inkscape:window-width="1920"
   inkscape:window-height="1017"
   inkscape:window-x="-8"
   inkscape:window-y="-8"
   inkscape:current-layer="svg2"
   inkscape:window-maximized="1"
   fit-margin-top="0"
   fit-margin-left="0"
   fit-margin-right="0"
   fit-margin-bottom="0"
   inkscape:snap-page="true">
	</sodipodi:namedview>





<radialGradient
   id="path2831_1_"
   cx="1770.2422"
   cy="1604.252"
   r="691.3548"
   gradientTransform="matrix(2.6459,0,0,-1.0401,-3686.1299,2613.6321)"
   gradientUnits="userSpaceOnUse">
	<stop
   offset="0"
   style="stop-color:#DA6C00"
   id="stop15" />
	<stop
   offset="1"
   style="stop-color:#C60200"
   id="stop17" />
</radialGradient>





<radialGradient
   id="path3911_1_"
   cx="193.2197"
   cy="2548.6738"
   r="329.1214"
   gradientTransform="matrix(1,0,0,-0.7071,1215.8554,2183.9388)"
   gradientUnits="userSpaceOnUse">
	<stop
   offset="0"
   style="stop-color:#FFC001"
   id="stop25" />
	<stop
   offset="1"
   style="stop-color:#FFE28C"
   id="stop27" />
</radialGradient>


<radialGradient
   id="rect3985_1_"
   cx="175.0244"
   cy="958.19379"
   r="101.7735"
   gradientTransform="matrix(1.3039,-0.59,-0.9503,-2.1001,1080.8613,3174.022)"
   gradientUnits="userSpaceOnUse">
	<stop
   offset="0"
   style="stop-color:#FFC001"
   id="stop32" />
	<stop
   offset="1"
   style="stop-color:#FFE28C"
   id="stop34" />
</radialGradient>

<radialGradient
   id="rect4013_1_"
   cx="1000.5684"
   cy="2030.3379"
   r="19.771799"
   gradientUnits="userSpaceOnUse"
   gradientTransform="translate(-501.61918,-748.92165)">
	<stop
   offset="0"
   style="stop-color:#FFC001"
   id="stop38" />
	<stop
   offset="1"
   style="stop-color:#FFE28C"
   id="stop40" />
</radialGradient>

<radialGradient
   id="rect4023_1_"
   cx="1017.292"
   cy="2068.9492"
   r="19.771799"
   gradientUnits="userSpaceOnUse"
   gradientTransform="translate(-501.61918,-748.92165)">
	<stop
   offset="0"
   style="stop-color:#FFC001"
   id="stop44" />
	<stop
   offset="1"
   style="stop-color:#FFE28C"
   id="stop46" />
</radialGradient>


<radialGradient
   id="path5039_1_"
   cx="934.01459"
   cy="2082.3652"
   r="31.3613"
   gradientUnits="userSpaceOnUse"
   gradientTransform="translate(-501.61918,-748.92165)">
	<stop
   offset="0"
   style="stop-color:#FFC001"
   id="stop51" />
	<stop
   offset="1"
   style="stop-color:#FFE28C"
   id="stop53" />
</radialGradient>


<radialGradient
   id="rect3973_1_"
   cx="-81.287102"
   cy="996.18951"
   r="101.7743"
   gradientTransform="matrix(1.105,-0.3278,-0.5717,-1.9377,1270.1098,2985.4807)"
   gradientUnits="userSpaceOnUse">
	<stop
   offset="0"
   style="stop-color:#FFC001"
   id="stop58" />
	<stop
   offset="1"
   style="stop-color:#FFE28C"
   id="stop60" />
</radialGradient>


<radialGradient
   id="rect3925_1_"
   cx="-495.93259"
   cy="950.4292"
   r="101.7735"
   gradientTransform="matrix(0.9999,-0.0158,-0.0276,-1.7461,1339.341,2813.1194)"
   gradientUnits="userSpaceOnUse">
	<stop
   offset="0"
   style="stop-color:#FFC001"
   id="stop65" />
	<stop
   offset="1"
   style="stop-color:#FFE28C"
   id="stop67" />
</radialGradient>

<radialGradient
   id="path3962_1_"
   cx="1322.0459"
   cy="2112.5693"
   r="24.785601"
   gradientUnits="userSpaceOnUse">
	<stop
   offset="0"
   style="stop-color:#FFC001"
   id="stop71" />
	<stop
   offset="1"
   style="stop-color:#FFE28C"
   id="stop73" />
</radialGradient>

<radialGradient
   id="path5080_1_"
   cx="1547.6113"
   cy="3819.2227"
   r="529.3316"
   gradientTransform="matrix(0.8,0,0,-0.3056,-329.99768,1731.1946)"
   gradientUnits="userSpaceOnUse">
	<stop
   offset="0"
   style="stop-color:#FFC001"
   id="stop77" />
	<stop
   offset="1"
   style="stop-color:#FFE28C"
   id="stop79" />
</radialGradient>





<g
   id="g3202"
   transform="matrix(0.93750011,0,0,0.93750011,4.0034195,3.9748897)"><path
     style="fill:url(#radialGradient3236);stroke:#000000;stroke-width:2.32201648"
     inkscape:connector-curvature="0"
     d="m 36.159739,34.02129 c -3.200213,0.2632 -33.0688492,8.9477 -33.0688492,8.9477 -5.6387153,27.3054 0.2442608,58.0506 28.8019202,77.1085 l 21.601488,-26.0537 57.603842,23.6852 c 6.30074,-4.5649 8.4896,-11.4078 11.72419,-20.6111 0.26222,-0.746 -0.65472,-1.2595 -0.37601,-2.0366 0.0997,-0.5799 1.38403,-1.4081 1.48051,-1.9888 2.31079,-13.9135 3.53767,-28.1338 -3.22812,-46.4191 3.15583,-0.2339 5.11068,-1.258 6.13378,-2.8949 0.12746,-10.1695 -1.59141,-24.7219 -8.26721,-34.4752002 -13.42318,-7.8951 -59.625533,-11.9589 -66.937832,-3.158 l -14.667639,-1.8422 C 24.260496,14.07449 25.806817,27.46909 36.159739,34.02129 z"
     sodipodi:nodetypes="cccccccccccc"
     id="path2831" /><path
     style="stroke:#000000;stroke-width:0.0641441"
     inkscape:connector-curvature="0"
     d="m 53.232269,6.1081898 c 5.125819,0.7883 9.878255,2.2081 14.57155,3.728 l -15.768222,-2.5471 1.196672,-1.1809 0,0 z"
     sodipodi:nodetypes="cccc"
     id="path3615" /><path
     style="stroke:#000000;stroke-width:0.0641441"
     inkscape:connector-curvature="0"
     d="m 37.524662,35.06489 c 0.02822,0.167 14.363916,5.5138 14.363916,5.5138 l -12.416694,-5.848 -1.947222,0.3342 0,0 z"
     id="path3617" /><path
     style="stroke:#000000;stroke-width:0.0641441"
     inkscape:connector-curvature="0"
     d="m 124.43427,44.42269 c -7.83552,1.4532 -18.37113,-2.4413 -24.29733,-3.7037 6.95148,2.5619 13.7294,5.0383 20.85446,7.686 l 3.44287,-3.9823 0,0 z"
     sodipodi:nodetypes="cccc"
     id="path3619" /><path
     style="stroke:#000000;stroke-width:0.0641441"
     inkscape:connector-curvature="0"
     d="m 122.87506,92.94579 c -3.16789,0.4163 -21.00579,-14.8363 -27.485109,-22.9163 5.873479,10.42 14.113369,19.258 26.658029,26.9973 l 0.82708,-4.081 0,0 z"
     sodipodi:nodetypes="cccc"
     id="path3621" /><path
     style="fill:url(#radialGradient3238);stroke:#000000;stroke-width:0.51315278"
     inkscape:connector-curvature="0"
     d="m 76.586814,36.82109 c 0.517899,0.027 -2.357168,-1.0467 -2.902393,-1.4636 -1.141765,-0.8595 -2.020539,-2.2386 -2.360502,-3.6947 -0.102695,-0.4555 -0.134767,-1.3406 -0.06415,-1.6806 0.05132,-0.2117 0.05132,-0.2117 0.346314,-0.1731 1.180252,0.1603 3.457367,0.7056 5.882014,1.4047 0.667099,0.1924 1.225217,0.3463 1.231567,0.3335 0.01283,-0.01 -0.782558,-0.3271 -1.763963,-0.712 -2.32843,-0.9108 -4.361798,-1.7512 -5.240573,-2.1745 -0.545224,-0.263 -0.776143,-0.4105 -1.007062,-0.6671 -0.660684,-0.712 -1.103214,-1.61 -1.35344,-2.7709 -0.109045,-0.4876 -0.134703,-0.8339 -0.134703,-1.7319 0.0064,-1.7576 0.07691,-1.9692 1.19308,-3.6498 4.02825,-6.0552 9.166192,-9.4741 15.266296,-10.1733002 1.039134,-0.1155 3.887132,-0.083 4.913438,0.064 4.964753,0.6991002 9.461253,2.6619002 13.560053,5.9205002 1.07763,0.8531 3.23928,3.0212 3.98977,3.9897 1.75748,2.2707 2.82875,4.535 3.25852,6.8634 0.1796,0.9686 0.19885,3.0469 0.0321,3.977 -0.39769,2.2899 -1.05195,3.6562 -2.38616,4.9711 -1.34703,1.3278 -2.82234,1.9629 -4.5863,1.9692 -1.0648,0.01 -2.03978,-0.2117 -2.98269,-0.6607 l -0.32072,-0.1539 -0.0706,-0.8339 c -0.0962,-1.0776 -0.17961,-1.5201 -0.44901,-2.3477 -0.73125,-2.2578 -2.495212,-4.2976 -5.08022,-5.8563 -0.654269,-0.3914 -2.488791,-1.3215 -2.610664,-1.3215 -0.03207,0 0.346378,0.2631 0.827458,0.5773 3.297007,2.1682 5.420177,4.4581 6.202735,6.7096 0.211681,0.6286 0.314251,1.2187 0.314251,1.8794 0,1.1289 -0.307901,1.9179 -1.013486,2.5786 -0.827395,0.7825 -1.969224,1.2187 -3.604898,1.3726 -0.545225,0.051 -1.898666,-0.064 -2.706817,-0.2309 -1.533044,-0.3079 -3.611377,-1.2059 -5.1636,-2.2258 -0.429766,-0.2822 -0.789037,-0.5067 -0.801802,-0.4939 -2.017845,1.4233 -3.526193,1.1672 -4.553397,1.5267"
     sodipodi:nodetypes="ccccccccccccccccccccccccccsccscscccc"
     id="path3911" /><path
     style="stroke:#000000;stroke-width:0.49383259"
     inkscape:connector-curvature="0"
     d="m 11.620516,57.41869 15.274634,-6.9119 c 0.692885,-0.3135 1.488977,-0.05 1.778139,0.5895 l 13.347425,29.4964 c 0.289162,0.6391 -0.0381,1.4113 -0.730986,1.7249 l -15.274635,6.9119 c -0.692884,0.3135 -1.488912,0.05 -1.778138,-0.5894 L 10.88953,59.14349 c -0.289098,-0.639 0.0381,-1.4112 0.730986,-1.7248 z"
     id="rect3983" /><path
     style="fill:url(#radialGradient3240);stroke:#000000;stroke-width:0.43676999"
     inkscape:connector-curvature="0"
     d="m 12.410322,57.64399 14.132741,-6.3952 c 0.641057,-0.29 1.358957,-0.087 1.603411,0.4531 l 11.28455,24.9378 c 0.244518,0.5402 -0.07697,1.2134 -0.718029,1.5034 l -14.132741,6.3952 c -0.641056,0.2901 -1.358957,0.087 -1.60341,-0.4531 L 11.692229,59.14749 c -0.244453,-0.5402 0.07704,-1.2134 0.718093,-1.5035 z"
     id="rect3985" /><path
     style="fill:url(#radialGradient3242);stroke:#404040;stroke-width:0.50234455"
     inkscape:connector-curvature="0"
     d="m 31.039244,81.56469 1.129,-0.5108 c 0.328547,-0.1487 0.725214,0.019 0.885959,0.3739 l 0.219822,0.4857 c 0.160745,0.3552 0.0247,0.7637 -0.303851,0.9125 l -1.128936,0.5108 c -0.328546,0.1487 -0.725278,-0.019 -0.886023,-0.3739 l -0.219757,-0.4858 c -0.160874,-0.3552 -0.02476,-0.7638 0.303786,-0.9124 z"
     id="rect4013" /><path
     style="fill:url(#radialGradient3244);stroke:#404040;stroke-width:0.50234455"
     inkscape:connector-curvature="0"
     d="m 32.111926,84.04139 1.129,-0.5109 c 0.328546,-0.1487 0.725213,0.019 0.885959,0.374 l 0.219821,0.4857 c 0.160745,0.3552 0.0247,0.7637 -0.30385,0.9124 l -1.128936,0.5109 c -0.328546,0.1486 -0.725278,-0.019 -0.886023,-0.374 l -0.219822,-0.4857 c -0.160745,-0.3553 -0.02469,-0.7637 0.303851,-0.9124 z"
     id="rect4023" /><path
     style="fill:#231f20;stroke:#404040;stroke-width:0.93080789"
     inkscape:connector-curvature="0"
     d="m 25.212458,84.81499 3.442678,-1.5578 c 0.262221,-0.1187 0.586662,0.033 0.724893,0.3379 l 0.953181,2.1066 c 0.138166,0.3054 0.03759,0.649 -0.224568,0.7676 l -3.442678,1.5579 c -0.262157,0.1186 -0.586662,-0.033 -0.724829,-0.338 l -0.953245,-2.1066 c -0.138167,-0.3053 -0.03759,-0.649 0.224568,-0.7676 z"
     id="rect4025" /><path
     style="fill:url(#radialGradient3246)"
     inkscape:connector-curvature="0"
     d="m 25.359477,86.61259 1.241829,-2.1562 0.3365,0.7117 2.67141,-1.2 0.502504,1.1265 -2.61663,1.2732 0.337142,0.7292 -2.472755,-0.4844 0,0 z"
     sodipodi:nodetypes="cccccccc"
     id="path5039" /><path
     style="stroke:#000000;stroke-width:0.49383259"
     inkscape:connector-curvature="0"
     d="m 28.912097,58.45829 12.945114,-3.8404 c 0.587175,-0.1742 1.204177,0.1625 1.378136,0.7522 l 8.029751,27.2157 c 0.174023,0.5896 -0.161002,1.2089 -0.748177,1.3831 l -12.945113,3.8404 c -0.587176,0.1742 -1.204242,-0.1626 -1.378201,-0.7522 l -8.02975,-27.2157 c -0.173895,-0.5897 0.161065,-1.2089 0.74824,-1.3831 z"
     id="rect3971" /><path
     style="fill:url(#radialGradient3248);stroke:#000000;stroke-width:0.43676999"
     inkscape:connector-curvature="0"
     d="m 29.527624,58.76099 11.977436,-3.5533 c 0.5433,-0.1612 1.102957,0.1122 1.25004,0.6107 l 6.788691,23.0095 c 0.147082,0.4985 -0.174087,1.0333 -0.717388,1.1945 l -11.977435,3.5533 c -0.543301,0.1612 -1.102958,-0.1123 -1.250041,-0.6107 l -6.78869,-23.0096 c -0.147019,-0.4984 0.174087,-1.0332 0.717387,-1.1944 z"
     id="rect3973" /><path
     style="stroke:#000000;stroke-width:0.49383259"
     inkscape:connector-curvature="0"
     d="m 46.380204,63.00789 11.713482,-0.1854 c 0.531306,-0.01 0.968833,0.4155 0.977235,0.9468 l 0.388136,24.5242 c 0.0084,0.5314 -0.415525,0.9689 -0.946831,0.9773 l -11.713418,0.1854 c -0.531306,0.01 -0.968832,-0.4155 -0.977235,-0.9468 l -0.3882,-24.5243 c -0.0084,-0.5313 0.415461,-0.9688 0.946831,-0.9772 z"
     id="rect3923" /><path
     style="fill:url(#radialGradient3250);stroke:#000000;stroke-width:0.43676999"
     inkscape:connector-curvature="0"
     d="m 46.824337,63.40299 10.837852,-0.1715 c 0.4916,-0.01 0.8959,0.3501 0.902956,0.7993 l 0.328161,20.734 c 0.0071,0.4492 -0.385698,0.8196 -0.877298,0.8274 l -10.837788,0.1716 c -0.4916,0.01 -0.8959,-0.3501 -0.902956,-0.7993 l -0.328161,-20.734 c -0.0071,-0.4492 0.385634,-0.8197 0.877234,-0.8275 z"
     id="rect3925" /><path
     style="fill:url(#radialGradient3252);stroke:#000000;stroke-width:0.66709864;stroke-linecap:round"
     inkscape:connector-curvature="0"
     d="m 82.532779,37.92769 c 0,0 -30.699878,7.828 -37.406977,10.5512 -4.813438,1.9544 -14.088675,8.6918 -14.088675,8.6918 l -0.681659,-1.7042 c 0,0 9.364846,-6.3948 13.179688,-8.1237 5.991508,-2.7154 33.11779,-10.5746 33.11779,-10.5746"
     sodipodi:nodetypes="csccsc"
     id="path5080" /><path
     inkscape:connector-curvature="0"
     d="m 41.012497,58.10679 c -0.898017,0.7953 -1.642089,1.4624 -1.654918,1.4881 -0.01283,0.038 4.291176,0.9557 4.342556,0.9237 0.03207,-0.026 -0.955747,-3.7718 -1.007062,-3.8166 -0.02566,-0.026 -0.782559,0.6094 -1.680576,1.4048 z"
     id="path30" /><path
     inkscape:connector-curvature="0"
     d="m 36.490338,59.24209 c -0.141117,0.051 -0.346378,0.1924 -0.461837,0.3143 -0.198847,0.218 -0.205262,0.218 -0.455424,0.1283 -0.519631,-0.1732 -1.366269,0.1026 -1.661332,0.5452 -0.179603,0.263 -0.211675,0.7504 -0.0449,0.6863 0.05773,-0.019 0.153946,-0.039 0.21809,-0.039 0.07697,0 0.128288,-0.064 0.153946,-0.2052 0.05767,-0.2887 0.205197,-0.4234 0.59654,-0.5388 0.314306,-0.09 0.359207,-0.09 0.506739,0.01 0.179603,0.1155 0.314242,0.3656 0.269341,0.4939 -0.01924,0.045 -0.27582,0.186 -0.570819,0.3079 -0.872424,0.3656 -1.231566,0.8403 -1.019891,1.347 0.141117,0.3464 0.410522,0.5132 0.821045,0.5132 0.455487,0 0.827459,-0.1796 1.154593,-0.5516 l 0.250162,-0.2759 0.250162,0.1219 c 0.564469,0.2886 1.417585,0.058 1.719062,-0.4683 0.0898,-0.1475 0.173189,-0.372 0.198847,-0.4939 l 0.03855,-0.2309 -0.256577,0.026 c -0.243811,0.026 -0.269405,0.045 -0.327199,0.2694 -0.03849,0.1411 -0.153881,0.3207 -0.269341,0.4169 -0.179668,0.154 -0.250162,0.1732 -0.551703,0.1475 -0.378386,-0.032 -0.525982,-0.1411 -0.679928,-0.5066 l -0.09622,-0.2245 0.968576,-0.2566 c 0.525982,-0.1348 0.987819,-0.2694 1.026306,-0.2887 0.0898,-0.058 -0.03207,-0.4041 -0.262991,-0.7762 -0.314306,-0.5002 -0.910846,-0.6798 -1.513801,-0.4681 l 0,0 z m 0.968576,0.5709 c 0.121874,0.1218 0.21809,0.263 0.21809,0.3079 0,0.064 -0.224504,0.1539 -0.718414,0.2886 -0.397693,0.1091 -0.750486,0.1796 -0.782558,0.1604 -0.09622,-0.058 0.01283,-0.5388 0.166839,-0.6992 0.185954,-0.2052 0.339963,-0.2694 0.65427,-0.2694 0.192368,-0.01 0.288584,0.038 0.461773,0.2117 l 0,0 z m -1.616431,1.5779 c 0.07691,0.5004 -0.320721,0.9686 -0.833874,0.9814 -0.384864,0.013 -0.654269,-0.449 -0.404172,-0.6927 0.115524,-0.1155 1.103279,-0.603 1.154594,-0.5709 0.02572,0.013 0.05779,0.1411 0.08345,0.2822 z"
     id="path32" /><path
     inkscape:connector-curvature="0"
     d="m 42.167091,69.56929 c -0.968576,0.263 -1.821693,0.4875 -1.898665,0.5067 -0.134767,0.039 -0.128289,0.071 0.269341,1.5587 0.224504,0.8403 0.384864,1.5459 0.359271,1.5651 -0.0449,0.045 -1.552288,0.4426 -1.661332,0.4426 -0.03207,0 -0.243748,-0.6864 -0.468252,-1.5331 l -0.404108,-1.5266 -0.250162,0.064 c -0.134703,0.032 -0.237333,0.096 -0.224505,0.1347 0.01283,0.039 0.410523,1.5395 0.885189,3.329 l 0.859531,3.2586 0.224504,-0.039 c 0.121874,-0.026 0.237333,-0.051 0.250162,-0.064 0.01276,-0.013 -0.16036,-0.7056 -0.37845,-1.533 -0.224504,-0.8339 -0.384865,-1.533 -0.365621,-1.5522 0.06414,-0.064 1.667746,-0.4747 1.706297,-0.4363 0.01924,0.019 0.211675,0.7056 0.429701,1.5202 0.282234,1.0712 0.416937,1.4882 0.481081,1.4818 0.05138,-0.01 0.949397,-0.231 2.001296,-0.5067 1.481729,-0.3913 1.90508,-0.526 1.90508,-0.603 0,-0.058 -0.384865,-1.5458 -0.853181,-3.3098 -0.744072,-2.8031 -0.865945,-3.2072 -0.974926,-3.22 -0.07062,-0.01 -0.923675,0.1988 -1.892251,0.4618 l 0,0 z"
     id="path38" /><g
     transform="matrix(0.0641441,0,0,0.0641441,-32.175921,-48.03891)"
     id="g85">
	<path
   inkscape:connector-curvature="0"
   d="m 1332.3,1778.5 c -0.899,1.9 -1.5,3.7 -1.2,3.9 0.2,0.199 8,4.5 17.4,9.5 9.3,5.1 17.3,9.5 17.7,9.899 0.399,0.4 -1.5,5 -4.2,10.3 l -4.9,9.601 3.601,1.7 c 1.899,0.899 3.7,1.6 3.8,1.399 0.2,-0.2 3.2,-6.2 6.9,-13.5 l 6.5,-13.1 -21.4,-11.601 c -11.9,-6.399 -21.8,-11.6 -22,-11.6 -0.301,0 -1.301,1.602 -2.201,3.502 l 0,0 z"
   id="path36" />
	<path
   inkscape:connector-curvature="0"
   d="m 1330.3,1860.5 c -15,11.6 -27.899,21.7 -28.8,22.6 -1.3,1.301 1.3,3 25.7,16.101 15,8.1 27.399,14.6 27.5,14.399 0.5,-0.5 3.399,-65.5 3.1,-69.8 l -0.3,-4.399 -27.2,21.099 0,0 z"
   id="path40" />
	<path
   inkscape:connector-curvature="0"
   d="m 1285,1912.7 c -2.4,0.899 -6.1,4.6 -7.7,7.6 -0.8,1.601 -1.3,3 -1.1,3.101 5,3.699 5,3.699 8.3,-0.2 l 3.2,-3.601 9.5,4.7 c 11.1,5.601 15,6.5 20,4.4 l 3.6,-1.5 0.601,3.399 c 1,4.801 4.8,8.801 13,13.601 3.899,2.2 7.899,4.8 8.899,5.6 1.9,1.7 2.2,5.3 0.7,8.2 -0.9,1.6 -0.5,2.2 1.9,3.5 1.699,0.8 3.199,1.5 3.399,1.5 0.3,0 1.2,-1.8 2.101,-4 3.699,-9.3 1.199,-13.9 -11,-20.7 -10.9,-6 -13.801,-9.3 -13,-14.399 0.5,-3.4 0.3,-3.801 -2.4,-4.9 -2.7,-1.099 -3.3,-1 -5.4,0.9 -3.399,3.199 -7.6,2.6 -17.399,-2.301 -8.801,-4.4 -14.401,-6 -17.201,-4.9 l 0,0 z"
   id="path42" />
	<path
   inkscape:connector-curvature="0"
   d="m 1258.3,1959.2 c -3.3,3.7 -5.3,8.399 -5.3,12.8 0,3.7 0.6,4.7 5.6,9.4 l 5.601,5.399 -2.101,4 c -1.899,3.8 -1.899,4 -0.199,5.601 2.5,2.3 3.699,2 5.1,-1.4 0.7,-1.7 1.6,-3.3 2.1,-3.6 0.9,-0.5 34.801,26.1 38.2,29.8 2.3,2.7 2.2,3.8 -0.8,8.2 -1.4,2 -2.5,3.899 -2.5,4.1 0,0.201 1.3,1.3 2.9,2.4 l 2.899,2.1 3.2,-5.1 c 1.7,-2.801 3.3,-6.4 3.7,-8 1.1,-5.7 -1.2,-8.4 -22,-25.2 -10.9,-8.8 -20.101,-16.601 -20.4,-17.4 -0.3,-0.7 0.5,-2.8 1.6,-4.7 l 2.101,-3.399 -2.7,-2.2 -2.7,-2.1 -1.899,3.8 c -1.101,2.1 -2.101,4 -2.301,4.2 -0.8,0.899 -7.399,-6.301 -7.399,-8 0,-0.9 1.1,-3.2 2.399,-5.2 l 2.4,-3.5 -2.2,-2.1 c -2.801,-2.601 -2.801,-2.601 -5.301,0.099 l 0,0 z"
   id="path44" />
	<path
   inkscape:connector-curvature="0"
   d="m 1340.7,1762.6 c -1,2 -1.601,3.801 -1.4,4 0.3,0.4 7.3,4.2 34.4,18.801 l 16.2,8.699 -9.101,17.5 c -4.899,9.601 -8.899,17.7 -8.7,17.801 0.2,0.199 1.801,1.1 3.5,1.899 l 3.2,1.601 9.2,-18.2 c 5.1,-10 10.1,-19.601 11.1,-21.3 l 1.801,-3 -28.601,-15.5 c -15.8,-8.5 -28.899,-15.5 -29.3,-15.7 -0.299,-0.101 -1.399,1.399 -2.299,3.399 l 0,0 z"
   id="path34" />
</g><g
     transform="matrix(0.0641441,0,0,0.0641441,-32.175921,-48.03891)"
     id="g3904">
	<path
   inkscape:connector-curvature="0"
   d="m 1849.9,950.9 c -5,1.6 -7.601,3.5 -18.601,14.3 l -11.1,11 -7.601,-5.101 c -4.199,-2.899 -8.199,-5.399 -9,-5.699 -1.199,-0.4 -10.5,8.199 -11.3,10.399 -0.2,0.4 3.601,3.101 8.2,6 4.7,2.9 8.5,5.7 8.5,6.2 0,1.7 -81.8,89.6 -84.4,90.8 -6,2.7 -11.399,0.601 -20.399,-8.1 l -4.2,-4.101 -6.3,6.2 -6.2,6.3 4.9,4.601 c 7.3,6.6 16.699,13.1 21.6,14.8 11.1,3.9 18.4,0.8 32.7,-13.7 7.5,-7.699 78.399,-83.699 79.8,-85.6 0.2,-0.2 4,2.1 8.6,5.1 4.601,2.9 8.9,5.601 9.5,6 0.7,0.4 3.4,-1.899 6.301,-5.199 l 5.1,-5.9 -9,-5.8 -8.9,-5.7 1.9,-2.6 c 2.1,-3 9.2,-9.801 13.4,-12.9 5.399,-4.1 10.399,-2.4 19.8,6.6 l 5.7,5.4 6.1,-5.7 c 3.3,-3.2 6,-6.2 6,-6.6 0,-0.4 -3.2,-4 -7.2,-7.9 -11.8,-11.6 -23.6,-16.2 -33.9,-13.1 l 0,0 z"
   id="path20" />
	<path
   inkscape:connector-curvature="0"
   d="m 2023.8,980.3 c -19.3,11.3 -27.6,16.601 -27.2,17.601 0.4,1.3 19.7,34.399 23.101,39.699 1.3,2 0.8,2.5 -10.8,9.4 -11.301,6.8 -12.301,7.2 -13.5,5.5 -0.7,-1 -6.4,-10.5 -12.601,-21.1 -6.2,-10.601 -11.6,-19.4 -12,-19.4 -0.399,0 -2.1,0.8 -3.7,1.8 l -2.899,1.7 26,44 c 14.2,24.2 26.6,45 27.399,46.2 1.301,2.1 1.5,2.2 4.4,0.5 1.6,-0.9 3,-2.101 3,-2.5 0,-0.4 -5.4,-10 -12.1,-21.2 -6.601,-11.2 -11.801,-20.8 -11.5,-21.3 0.6,-1.101 20.1,-12.8 22.6,-13.601 1.1,-0.399 4.8,5.101 13.5,20 6.6,11.301 12.3,20.801 12.7,21 0.601,0.4 47.399,-26.6 54,-31.1 1.601,-1 -0.899,-5.7 -25.3,-47.1 -14.9,-25.2 -27.2,-46 -27.301,-46.101 C 2051.5,964.2 2039,971.4 2023.8,980.3 l 0,0 z"
   id="path22" />
	<path
   inkscape:connector-curvature="0"
   d="m 1933.2,1149 c -8.9,13.7 -16.5,25.6 -16.8,26.4 -0.4,1.1 0,1.6 1.199,1.6 1.101,0 15.801,1.6 32.801,3.5 17,2 31.699,3.5 32.6,3.3 1.3,-0.2 -2.2,-6.899 -15.6,-29.7 -9.5,-16.1 -17.5,-29.5 -17.7,-29.699 -0.2,-0.201 -7.6,10.799 -16.5,24.599 l 0,0 z"
   id="path24" />
	<path
   inkscape:connector-curvature="0"
   d="m 2120,1157 c -2.9,3.8 -5.6,7 -6.1,7 -0.5,0 -3.9,-2.3 -7.7,-5 -3.8,-2.8 -7.101,-5 -7.5,-5 -0.3,0 -1.5,1.3 -2.7,2.9 l -2,3 7.5,5.3 c 4.1,2.899 7.5,5.7 7.5,6.1 0,0.4 -2.5,4 -5.5,8 l -5.4,7.2 2.7,2.2 c 1.5,1.2 3,2.2 3.3,2.3 0.4,0 8.2,-10 11,-14.3 0.4,-0.5 4.101,1.6 8.301,4.8 l 7.699,5.6 1.9,-2.3 c 1.1,-1.3 1.9,-2.8 2,-3.5 0,-0.6 -3.1,-3.399 -7,-6.2 -3.8,-2.8 -7,-5.399 -7,-5.699 0,-0.4 2.3,-3.7 5,-7.5 2.8,-3.801 5,-7.301 5,-7.801 0,-0.8 -4.3,-4.1 -5.4,-4.1 -0.2,0 -2.7,3.1 -5.6,7 z"
   id="path26" />
	<path
   inkscape:connector-curvature="0"
   d="m 1874.5,1190.7 c -1.1,0.2 -3,0.6 -4.2,0.899 -1.3,0.2 -3.8,1.801 -5.7,3.5 -3.399,2.9 -3.6,3 -6.5,1.5 -6.3,-3.3 -20.6,-1.3 -25.899,3.7 -2.9,2.7 -5.2,6.9 -5.2,9.7 0,1.7 0.6,2 4,2 3.5,0 4,-0.3 4,-2.3 0,-3.4 3.9,-6.601 9.1,-7.5 7.9,-1.4 10.801,0.199 12.4,6.899 0.6,2.5 0.4,2.7 -8.2,5.4 -12.8,4 -16.8,6.5 -18.899,12 -1.601,4.2 -1.601,4.8 0,8.8 4.199,11.101 19.699,11.601 30.699,1 l 3.601,-3.399 3.8,2.5 c 3.2,2.199 4.9,2.6 10.7,2.6 10.899,0 18.1,-5 20.6,-14.3 l 1,-3.7 h -4.399 c -3.4,0 -4.4,0.4 -4.4,1.6 0,4.7 -6.6,10.4 -12,10.4 -4.4,0 -9.2,-3.2 -11.1,-7.4 -1,-2.3 -1.9,-4.6 -1.9,-5.199 0,-0.601 6.9,-2.101 16.3,-3.5 l 16.2,-2.4 -0.3,-3 c -1.503,-12.9 -12.603,-22.2 -23.703,-19.8 l 0,0 z m 9.1,8.2 c 3.7,2.199 6.4,7.8 4.5,9.1 -0.699,0.4 -5.399,1.3 -10.5,1.9 -5,0.699 -10,1.5 -11,1.8 -1.699,0.5 -1.8,0.1 -1.3,-3.7 1.2,-9.1 10.6,-13.8 18.3,-9.1 l 0,0 z m -25.1,23.1 c 1.3,7.9 -5.2,15 -13.7,15 -4.6,0 -7.8,-2.8 -7.8,-6.9 0,-1.6 0.7,-3.5 1.6,-4.199 1.301,-1.101 16.301,-7.4 18.601,-7.801 0.299,0 0.899,1.7 1.299,3.9 z"
   id="path28" />
</g></g>



</svg>